<?xml version="1.0" encoding="utf-8"?>
<!-- Generator: Adobe Illustrator 16.0.0, SVG Export Plug-In . SVG Version: 6.00 Build 0)  -->
<!DOCTYPE svg PUBLIC "-//W3C//DTD SVG 1.1//EN" "http://www.w3.org/Graphics/SVG/1.1/DTD/svg11.dtd">
<svg version="1.1" id="圖層_1" xmlns="http://www.w3.org/2000/svg" xmlns:xlink="http://www.w3.org/1999/xlink" x="0px" y="0px"
	 width="50px" height="50px" viewBox="0 0 50 50" enable-background="new 0 0 50 50" xml:space="preserve">
<g>
	<g>
		<path d="M28.115,3.363C28.115,5.083,25,25.566,25,25.566S21.885,5.083,21.885,3.363c0-1.72,1.394-3.115,3.115-3.115
			C26.72,0.248,28.115,1.643,28.115,3.363z"/>
		<path d="M28.115,47.134c0-1.721-3.115-22.203-3.115-22.203s-3.115,20.482-3.115,22.203s1.394,3.114,3.115,3.114
			C26.72,50.248,28.115,48.854,28.115,47.134z"/>
	</g>
	<g>
		<path d="M11.729,7.57c1.216,1.217,13.497,17.902,13.497,17.902S8.54,13.192,7.322,11.976c-1.216-1.217-1.217-3.188,0-4.405
			C8.54,6.354,10.511,6.354,11.729,7.57z"/>
		<path d="M42.68,38.521c-1.217-1.217-17.904-13.498-17.904-13.498S37.057,41.71,38.273,42.927c1.217,1.216,3.188,1.216,4.404-0.001
			C43.895,41.71,43.895,39.737,42.68,38.521z"/>
	</g>
	<g>
		<path d="M3.116,22.133c1.721,0,22.202,3.115,22.202,3.115S4.837,28.363,3.116,28.363C1.395,28.362,0,26.969,0,25.248
			C0.001,23.528,1.395,22.133,3.116,22.133z"/>
		<path d="M46.888,22.132c-1.722,0-22.205,3.115-22.205,3.115s20.482,3.116,22.203,3.116C48.607,28.362,50,26.969,50,25.248
			C50.001,23.528,48.607,22.133,46.888,22.132z"/>
	</g>
	<g>
		<path d="M7.322,38.52c1.218-1.217,17.903-13.496,17.903-13.496s-12.28,16.686-13.497,17.902c-1.217,1.215-3.189,1.217-4.406,0
			C6.107,41.709,6.107,39.736,7.322,38.52z"/>
		<path d="M38.274,7.568c-1.218,1.218-13.499,17.904-13.499,17.904s16.687-12.28,17.903-13.497c1.216-1.218,1.216-3.188-0.001-4.405
			C41.463,6.354,39.49,6.353,38.274,7.568z"/>
	</g>
</g>
</svg>
